PathFileType	3	(X/Y/Z)	C:\Users\koon_\Desktop\
DataRate	CameraRate	NumFrames	NumMarkers	Units	OrigDataRate	OrigDataStartFrame	OrigNumFrames
100.0	100.0	14	27	mm	100.0	1780	2034	
Frame#	Time	GM:LFHD			GM:RFHD			GM:LBHD			GM:RBHD			GM:C7			GM:T10			GM:CLAV			GM:STRN			GM:RBAK			GM:LSHO			GM:LUPA			GM:LELB			GM:LFRA			GM:LWRA			GM:LWRB			GM:LFIN			GM:RSHO			GM:RUPA			GM:RELB			GM:RFRA			GM:RWRA			GM:RWRB			GM:RFIN			GM:LASI			GM:RASI			GM:LPSI			GM:RPSI			
		X1	Y1	Z1	X2	Y2	Z2	X3	Y3	Z3	X4	Y4	Z4	X5	Y5	Z5	X6	Y6	Z6	X7	Y7	Z7	X8	Y8	Z8	X9	Y9	Z9	X10	Y10	Z10	X11	Y11	Z11	X12	Y12	Z12	X13	Y13	Z13	X14	Y14	Z14	X15	Y15	Z15	X16	Y16	Z16	X17	Y17	Z17	X18	Y18	Z18	X19	Y19	Z19	X20	Y20	Z20	X21	Y21	Z21	X22	Y22	Z22	X23	Y23	Z23	X24	Y24	Z24	X25	Y25	Z25	X26	Y26	Z26	X27	Y27	Z27	
1780	17.79	69.916153	1600.0223	-294.97614	-83.884003	1592.0558	-296.05768	72.741592	1568.5679	-424.50201	-90.829842	1564.4769	-409.18964	-5.2534699	1408.0688	-456.67084	-1.5608737	1214.7872	-503.35986	6.8764033	1347.8511	-297.24658	7.7763863	1202.2234	-251.1097	-98.384163	1297.7932	-499.4816	174.90164	1382.5431	-383.41199	238.5117	1274.095	-377.36295	266.75702	1065.226	-418.45847	231.27856	956.80615	-323.8988	231.15601	889.05878	-294.72345	265.41025	861.54327	-344.77707	245.86977	806.55951	-264.69592	-185.78339	1381.0547	-355.14236	-240.89763	1144.1699	-350.86136	-267.7034	1059.7633	-396.07874	-240.20514	1006.5934	-324.52078	-229.10033	878.81128	-290.9938	-254.23914	855.12939	-341.62604	-251.52028	798.21344	-268.73654	143.6958	905.35883	-258.98792	-148.56755	905.84698	-257.9566				-86.877106	919.37024	-474.58875
1781	17.8	70.155968	1599.9945	-295.19839	-83.612236	1592.0518	-296.2377	72.941643	1568.524	-424.67703	-90.997009	1564.271	-409.29211	-5.0733042	1408.0507	-456.845	-1.4239341	1214.7838	-503.62671	7.1177015	1347.8647	-297.397	7.9946432	1202.2877	-251.21483	-98.306015	1297.8016	-499.55573	175.10222	1382.4753	-383.66113	238.77563	1274.1002	-377.54504	266.91028	1065.1278	-418.58228	231.58936	956.78876	-323.86667	231.64815	889.07098	-294.5932	265.78247	861.71942	-344.9361	246.0789	806.50879	-264.67969	-185.55148	1381.0814	-355.09592	-240.80696	1144.2648	-350.88318	-267.68958	1059.8096	-396.00934	-240.04018	1006.6686	-324.55753	-228.93872	878.9151	-291.03513	-254.18028	855.23785	-341.62274	-251.37169	798.26599	-268.75067	143.75821	905.35022	-259.15811	-148.48415	905.84967	-258.07635				-86.824883	919.31	-474.72659
1782	17.81	70.415924	1599.9611	-295.43802	-83.448494	1591.9865	-296.40793	73.148766	1568.4829	-424.89877	-90.840797	1564.2024	-409.50507	-4.9336576	1408.0361	-457.02548	-1.2988048	1214.7644	-503.78537	7.3478637	1347.9529	-297.5123	8.2330284	1202.3137	-251.31766	-98.2332	1297.8167	-499.6756	175.32861	1382.4387	-383.92041	238.90739	1274.0374	-377.79953	267.02515	1064.9918	-418.66098	231.81001	956.74243	-323.91415	231.85107	889.04242	-294.57748	265.63324	861.37396	-344.80264	246.28412	806.48395	-264.65161	-185.32672	1381.1439	-355.12354	-240.69281	1144.3394	-350.89258	-267.63647	1059.864	-396.01212	-239.89601	1006.7776	-324.47986	-228.77599	878.98126	-290.96039	-254.13129	855.33063	-341.54306	-251.28093	798.32501	-268.76169	143.88437	905.3764	-259.30978	-148.38443	905.89215	-258.1976				-86.777008	919.2428	-474.92886
1783	17.82	70.623917	1599.9237	-295.61465	-83.250076	1591.9442	-296.67429	73.337395	1568.4297	-425.11478	-90.616646	1564.1166	-409.66486	-4.7388039	1407.9907	-457.20673	-1.2090069	1214.7444	-503.94482	7.6008253	1347.9677	-297.68167	8.4222212	1202.3262	-251.42848	-98.125931	1297.7935	-499.78656	175.55487	1382.4187	-384.15103	239.21783	1274.0369	-377.97949	267.14389	1064.8927	-418.84607	231.95129	956.71423	-323.95013	232.15303	889.04187	-294.55267	265.68082	861.30511	-344.81659	246.66351	806.57965	-264.63193	-185.12071	1381.196	-355.16763	-240.56319	1144.437	-350.8356	-267.65125	1059.9567	-395.96234	-239.79269	1006.8417	-324.45645	-228.67848	879.03998	-290.9733	-254.07204	855.41248	-341.46863	-251.14229	798.38654	-268.6723	143.90343	905.3974	-259.50562	-148.34204	905.90265	-258.29495				-86.779808	919.20618	-475.03067
1784	17.83	70.854233	1599.9373	-295.86816	-82.95311	1591.8887	-296.87152	73.547852	1568.4078	-425.34473	-90.40387	1564.0913	-409.85211	-4.5235291	1407.9565	-457.42044	-1.1250259	1214.712	-504.16385	7.8291969	1347.9849	-297.79425	8.6220665	1202.3463	-251.53908	-98.047913	1297.7783	-499.84753	175.76131	1382.374	-384.41989	239.44093	1273.9951	-378.27731	267.24426	1064.8186	-418.99609	232.13789	956.74646	-323.85962	232.4359	889.13519	-294.43317	265.74878	861.2428	-344.8356	247.06232	806.60248	-264.59686	-184.88704	1381.2094	-355.20056	-240.49417	1144.514	-350.84512	-267.64685	1060.0099	-395.86731	-239.71872	1006.9645	-324.36859	-228.54491	879.1377	-290.87457	-254.0563	855.50208	-341.36411	-250.95511	798.46271	-268.59637	144.01294	905.42731	-259.69107	-148.19171	905.94373	-258.40942				-86.740639	919.17493	-475.18069
1785	17.84	71.113487	1599.907	-296.05301	-82.642357	1591.895	-297.02908	73.747025	1568.3805	-425.55505	-90.192619	1564.0072	-410.06573	-4.3685265	1407.9409	-457.60388	-1.0119804	1214.7018	-504.37439	8.1263914	1348.0308	-297.9147	8.894927	1202.389	-251.6562	-97.990692	1297.7682	-499.93301	175.97746	1382.3586	-384.61148	239.53638	1273.9302	-378.4675	267.3533	1064.7192	-419.10086	232.2419	956.69	-323.94943	232.73888	889.13037	-294.40793	266.00162	861.47821	-344.98016	247.44876	806.65594	-264.53201	-184.66328	1381.2668	-355.26254	-240.3161	1144.5748	-350.76044	-267.65036	1060.0792	-395.74881	-239.60666	1007.0468	-324.19592	-228.46075	879.23749	-290.78336	-254.08536	855.58875	-341.25064	-250.87338	798.52997	-268.42596	144.16756	905.50281	-259.86566	-148.11958	906.00256	-258.55554				-86.714272	919.11169	-475.28888
1786	17.85	71.35495	1599.8542	-296.26913	-82.44297	1591.8202	-297.29828	73.991035	1568.3529	-425.78729	-90.010422	1563.9932	-410.22247	-4.2124619	1407.9185	-457.72733	-0.96111447	1214.6815	-504.53186	8.3578415	1348.0752	-298.06033	9.1950474	1202.441	-251.81693	-97.881836	1297.7576	-500.05365	176.14418	1382.3274	-384.87445	239.77238	1273.9001	-378.69754	267.42969	1064.5947	-419.21912	232.49849	956.77179	-323.83902	233.02966	889.16785	-294.29318	266.00604	861.39874	-345.02466	247.87445	806.73468	-264.41891	-184.4203	1381.3047	-355.30124	-240.2845	1144.6318	-350.69565	-267.71936	1060.1346	-395.62701	-239.52982	1007.0795	-324.11487	-228.36394	879.28638	-290.68494	-254.10378	855.68512	-341.02948	-250.72511	798.54053	-268.34738	144.23656	905.54095	-260.04312	-147.97408	906.04272	-258.66772				-86.68412	919.05377	-475.38934
1787	17.86	71.572159	1599.7972	-296.46289	-82.136185	1591.8055	-297.44745	74.208374	1568.3015	-426.0015	-89.852127	1563.9465	-410.40054	-4.0492306	1407.9008	-457.89291	-0.87745368	1214.6702	-504.74548	8.5720778	1348.0944	-298.16449	9.4094629	1202.454	-251.98906	-97.79953	1297.7893	-500.17358	176.33107	1382.2386	-385.08188	239.97711	1273.8372	-378.94241	267.53473	1064.4969	-419.41391	232.7384	956.7486	-323.8049	233.31953	889.20911	-294.1785	265.98224	861.29822	-345.02274	248.24553	806.81543	-264.34857	-184.05742	1381.1222	-355.12756	-240.23857	1144.6951	-350.6832	-267.71097	1060.1761	-395.47131	-239.47546	1007.1848	-323.99628	-228.23265	879.38293	-290.58743	-254.13159	855.7655	-340.88684	-250.55891	798.62073	-268.17102	144.34187	905.5575	-260.23352	-147.83809	906.09552	-258.71469				-86.675903	919.02527	-475.44101
1788	17.87	71.81179	1599.7417	-296.71814	-81.863937	1591.8029	-297.60028	74.378922	1568.2566	-426.22549	-89.696938	1563.9604	-410.63196	-3.8960831	1407.9055	-458.07541	-0.78796208	1214.6509	-504.90253	8.7889738	1348.1565	-298.3175	9.6835022	1202.5011	-252.06285	-97.710884	1297.8483	-500.24664	176.47435	1382.2222	-385.28952	240.13193	1273.7992	-379.19189	267.63821	1064.3408	-419.4762	232.99051	956.76007	-323.70319	233.60687	889.21069	-294.06128	265.95758	861.2478	-344.95343	248.63612	806.88928	-264.2265	-184.03198	1381.3561	-355.33917	-240.14328	1144.8407	-350.60312	-267.78116	1060.2765	-395.32123	-239.35962	1007.3	-323.89142	-228.13649	879.4574	-290.49323	-254.16583	855.85492	-340.68109	-250.41959	798.75061	-268.01508	144.44681	905.57617	-260.42297	-147.77596	906.10034	-258.83682				-86.649704	919.01141	-475.60153
1789	17.88	72.139214	1599.7179	-296.97998	-81.629074	1591.7703	-297.73578	74.59156	1568.2166	-426.45963	-89.554237	1563.9327	-410.77103	-3.749459	1407.8998	-458.24802	-0.70829326	1214.6648	-505.11877	9.0020056	1348.2012	-298.43695	9.8846197	1202.5167	-252.27797	-97.683685	1297.8792	-500.34915	176.65341	1382.1464	-385.52298	240.31149	1273.7528	-379.42908	267.72699	1064.2153	-419.63528	233.35464	956.89014	-323.55658	233.8871	889.26501	-293.93936	265.93777	861.14056	-344.88434	248.93074	806.94733	-264.04791	-183.7886	1381.4473	-355.37134	-240.04158	1144.9865	-350.50571	-267.80902	1060.4065	-395.21152	-239.32246	1007.4451	-323.77948	-228.0065	879.55414	-290.39603	-254.19154	855.99811	-340.48639	-250.2372	798.85913	-267.88568	144.57993	905.53809	-260.63766	-147.64195	906.15436	-258.84052				-86.64756	918.98584	-475.66837
1790	17.89	72.403175	1599.6868	-297.21722	-81.376358	1591.7866	-297.87616	74.788147	1568.1913	-426.67731	-89.336151	1564.0023	-410.92932	-3.6455593	1407.8834	-458.39279	-0.64901716	1214.6472	-505.27554	9.2233105	1348.2673	-298.60959	10.077684	1202.561	-252.38934	-97.619385	1297.8961	-500.44608	176.85773	1382.1157	-385.77405	240.52075	1273.7039	-379.59393	267.8129	1064.1188	-419.72955	233.69511	956.93329	-323.47482	234.15524	889.36011	-293.72748	265.93103	860.92499	-344.67496	249.24857	807.03723	-263.90512	-183.60208	1381.5374	-355.4238	-239.94731	1145.0863	-350.41595	-267.84503	1060.501	-395.07312	-239.22946	1007.6105	-323.67917	-227.87128	879.71674	-290.32355	-254.22472	856.1358	-340.28156	-250.04005	798.93317	-267.64682	144.65414	905.54541	-260.9101	-147.54428	906.19678	-258.94159				-86.597878	918.94458	-475.78555
1791	17.9	72.646828	1599.6483	-297.46756	-81.138641	1591.7313	-298.11185	74.969315	1568.1836	-426.91537	-88.607841	1564.1335	-411.16095	-3.518224	1407.8698	-458.5882	-0.60934377	1214.6366	-505.48492	9.4568853	1348.278	-298.72092	10.261818	1202.5366	-252.54362	-97.564148	1297.9452	-500.53036	177.03091	1382.0687	-386.05557	240.67319	1273.6478	-379.86438	267.92691	1063.9872	-419.78989	233.95537	956.97949	-323.27899	234.33711	889.38361	-293.61383	266.01306	861.08325	-344.68726	249.51587	807.12311	-263.69122	-183.37822	1381.6226	-355.43604	-239.90013	1145.2163	-350.36746	-267.85931	1060.6122	-394.94342	-239.12727	1007.7926	-323.47522	-227.73837	879.87061	-290.14014	-254.21599	856.34247	-340.12152	-249.92561	799.09454	-267.4541	144.75771	905.47595	-261.10437	-147.47498	906.19592	-259.06924				-86.562958	918.90118	-475.88934
1792	17.91	72.877014	1599.6261	-297.63025	-80.881378	1591.7643	-298.32819	75.204056	1568.136	-427.08887	-88.797577	1564.0754	-411.35571	-3.3461759	1407.8481	-458.74881	-0.53049487	1214.6511	-505.69928	9.7047291	1348.354	-298.77997	10.416574	1202.6218	-252.69539	-97.501442	1297.9883	-500.68127	177.00714	1381.8518	-386.15875	240.81972	1273.5834	-379.98627	268.05957	1063.8636	-419.88419	234.11682	957.02692	-323.17499	234.60667	889.47424	-293.40146	265.85315	860.68042	-344.16815	249.77632	807.20465	-263.5463	-183.147	1381.7021	-355.39465	-239.82068	1145.3466	-350.28485	-267.90219	1060.7437	-394.80493	-239.05646	1007.9261	-323.28046	-227.67593	880.04706	-290.01257	-254.24982	856.50354	-339.84955	-249.73802	799.23907	-267.25082	144.86253	905.47369	-261.29211	-147.35077	906.2489	-259.10828				-86.558105	918.8053	-476.00546
1793	17.92	73.146667	1599.5754	-297.87122	-80.617729	1591.8156	-298.42816	75.408897	1568.1337	-427.36981	-88.558693	1564.0946	-411.52469	-3.2427731	1407.8353	-458.92715	-0.47577021	1214.6079	-505.8515	9.9416609	1348.3691	-298.93213	10.616443	1202.6356	-252.84927	-97.448097	1298.019	-500.70453	177.33336	1381.9553	-386.47498	240.96765	1273.5441	-380.1604	268.12106	1063.766	-419.98129	234.33473	957.07947	-323.04733	234.78183	889.49115	-293.20413	265.93484	860.70355	-344.00253	249.98936	807.21381	-263.33728	-182.981	1381.8075	-355.4071	-239.78725	1145.4722	-350.18726	-267.97232	1060.8456	-394.57782	-239.04234	1008.1258	-323.16373	-227.57312	880.20721	-289.8027	-254.23845	856.64728	-339.64545	-249.5206	799.36853	-266.98593	144.97435	905.44824	-261.49411	-147.23746	906.32355	-259.1889				-86.507813	918.78015	-476.08939
